<svg xmlns="http://www.w3.org/2000/svg" width="132" height="32" fill="none"><path fill="#1C1817" fill-rule="evenodd" d="m131.603 10.004-2.877.006.021-4.234-2.446 3.364v15.056h-3.393v-.34h-.001v-2.394a6.277 6.277 0 0 1-2.085 2.053c-.858.51-1.862.765-3.013.765a8.296 8.296 0 0 1-3.323-.668 8.87 8.87 0 0 1-2.736-1.84 8.854 8.854 0 0 1-1.84-2.736 8.297 8.297 0 0 1-.668-3.323c0-1.183.223-2.29.668-3.322a8.606 8.606 0 0 1 1.84-2.736 8.733 8.733 0 0 1 2.736-1.857 8.297 8.297 0 0 1 3.323-.668c1.151 0 2.155.26 3.013.782a6.182 6.182 0 0 1 2.085 2.02v-.665h.001v-.679l.001-.067c.014-.335.126-.659.323-.93l3.421-4.703-5.024.025.006-2.877L131.639 0l-.036 10.004Zm-13.762.4a4.87 4.87 0 0 0-2.589.716 5.434 5.434 0 0 0-1.857 1.922c-.456.804-.684 1.694-.684 2.671 0 .988.234 1.884.701 2.688a5.607 5.607 0 0 0 1.872 1.905 4.9 4.9 0 0 0 2.557.7c.956 0 1.792-.233 2.509-.7a4.773 4.773 0 0 0 1.661-1.922c.401-.803.602-1.694.602-2.67 0-.989-.201-1.885-.602-2.688a4.77 4.77 0 0 0-1.678-1.906c-.705-.477-1.536-.716-2.492-.716Z" clip-rule="evenodd"/><path fill="#1C1817" d="M99.15 23.857V7.57h3.387v1.727a6.075 6.075 0 0 1 2.085-1.596 6.158 6.158 0 0 1 2.671-.587c.608 0 1.21.082 1.807.245l-1.351 3.42a3.521 3.521 0 0 0-1.271-.245 3.76 3.76 0 0 0-1.97.538 3.992 3.992 0 0 0-1.434 1.417 3.79 3.79 0 0 0-.537 1.987v9.38h-3.388Zm-10.775.423c-1.499 0-2.867-.385-4.105-1.156a8.671 8.671 0 0 1-2.947-3.095c-.728-1.302-1.092-2.741-1.092-4.316 0-1.194.212-2.307.636-3.338a8.725 8.725 0 0 1 1.742-2.736 8.174 8.174 0 0 1 2.606-1.857 7.603 7.603 0 0 1 3.16-.668c1.498 0 2.86.386 4.088 1.157a8.452 8.452 0 0 1 2.948 3.11c.738 1.303 1.107 2.747 1.107 4.332a8.664 8.664 0 0 1-.635 3.323 8.823 8.823 0 0 1-1.76 2.736 8.107 8.107 0 0 1-2.589 1.84 7.53 7.53 0 0 1-3.16.668Zm0-3.387c.9 0 1.71-.24 2.426-.717a5.079 5.079 0 0 0 1.694-1.89c.424-.792.635-1.65.635-2.573 0-.944-.217-1.813-.651-2.605a5.045 5.045 0 0 0-1.71-1.89 4.221 4.221 0 0 0-2.394-.716c-.89 0-1.7.239-2.427.716a5.18 5.18 0 0 0-1.71 1.906 5.524 5.524 0 0 0-.619 2.59c0 .966.217 1.84.651 2.622a5.216 5.216 0 0 0 1.727 1.873 4.39 4.39 0 0 0 2.378.684Zm-28.383 2.964V1.055h3.665l10.472 16.678V1.055h3.387v22.802h-3.664L63.38 7.178v16.678h-3.388ZM52.645 7.57h3.387v16.287h-3.387V7.57Zm1.725-2.36c-.521 0-.956-.168-1.303-.505-.347-.337-.521-.76-.521-1.27 0-.5.174-.918.521-1.254a1.748 1.748 0 0 1 1.287-.522c.5 0 .923.174 1.27.522.347.336.521.754.521 1.254 0 .51-.174.933-.521 1.27a1.703 1.703 0 0 1-1.254.505Zm-8.736 2.36h3.388v16.71c0 1.118-.24 2.15-.717 3.095a7.598 7.598 0 0 1-1.906 2.442 8.795 8.795 0 0 1-2.768 1.613 9.298 9.298 0 0 1-3.241.57 7.73 7.73 0 0 1-3.29-.733 9.1 9.1 0 0 1-2.785-1.954 8.131 8.131 0 0 1-1.775-2.802l3.11-1.4c.217.673.565 1.27 1.043 1.791a5.585 5.585 0 0 0 1.693 1.238 4.69 4.69 0 0 0 2.004.456c.673 0 1.319-.109 1.938-.326.63-.206 1.189-.5 1.677-.88.5-.38.896-.835 1.19-1.367a3.564 3.564 0 0 0 .439-1.743v-2.752a6.345 6.345 0 0 1-2.052 2.003c-.836.5-1.808.75-2.916.75a8.058 8.058 0 0 1-3.257-.669 8.52 8.52 0 0 1-2.687-1.84 8.767 8.767 0 0 1-1.808-2.736 8.474 8.474 0 0 1-.651-3.323c0-1.183.217-2.29.651-3.322a8.524 8.524 0 0 1 1.808-2.736 8.393 8.393 0 0 1 2.687-1.857 8.059 8.059 0 0 1 3.258-.668c1.107 0 2.079.256 2.915.766.836.5 1.52 1.167 2.052 2.003V7.57Zm-4.935 13.436c.945 0 1.77-.238 2.476-.716a4.937 4.937 0 0 0 1.645-1.938 5.95 5.95 0 0 0 .586-2.639c0-.977-.201-1.862-.603-2.654a4.813 4.813 0 0 0-1.645-1.922c-.705-.489-1.525-.733-2.459-.733a4.62 4.62 0 0 0-2.508.717 5.258 5.258 0 0 0-1.791 1.921c-.446.804-.668 1.694-.668 2.671 0 .978.222 1.868.668 2.671a5.395 5.395 0 0 0 1.807 1.922c.76.467 1.59.7 2.492.7ZM22.497 24.28c-1.499 0-2.867-.385-4.104-1.156a8.67 8.67 0 0 1-2.948-3.095c-.728-1.302-1.091-2.741-1.091-4.316 0-1.194.211-2.307.635-3.338a8.723 8.723 0 0 1 1.742-2.736 8.174 8.174 0 0 1 2.606-1.857 7.602 7.602 0 0 1 3.16-.668c1.498 0 2.86.386 4.088 1.157a8.451 8.451 0 0 1 2.947 3.11c.739 1.303 1.108 2.747 1.108 4.332a8.664 8.664 0 0 1-.635 3.323 8.823 8.823 0 0 1-1.76 2.736 8.107 8.107 0 0 1-2.589 1.84 7.53 7.53 0 0 1-3.16.668Zm0-3.387c.901 0 1.71-.24 2.427-.717a5.079 5.079 0 0 0 1.693-1.89c.424-.792.635-1.65.635-2.573 0-.944-.217-1.813-.651-2.605a5.046 5.046 0 0 0-1.71-1.89 4.221 4.221 0 0 0-2.394-.716c-.89 0-1.7.239-2.427.716a5.179 5.179 0 0 0-1.71 1.906 5.524 5.524 0 0 0-.619 2.59c0 .966.217 1.84.652 2.622a5.216 5.216 0 0 0 1.726 1.873 4.39 4.39 0 0 0 2.378.684ZM0 23.857V1.056h3.388v19.413h9.82v3.388H0Z"/></svg>