<svg xmlns="http://www.w3.org/2000/svg" id="Layer_2" data-name="Layer 2" viewBox="0 0 338.11 300">
  <defs>
    <style>
      .cls-1 {
        fill: #d3d3d3;
      }
    </style>
  </defs>
  <g id="Layer_1-2" data-name="Layer 1">
    <path class="cls-1" d="M331.67,164.55l-19.48,18.26-121.35,113.69c-4.98,4.67-13.14,4.67-18.11,0l-16.91-15.83c-4.97-4.67-4.97-12.31,0-16.97l87.81-82.28c2.33-2.18.68-5.91-2.61-5.91-80.34,0-160.69,0-241.03,0v-46.4c81.99,0,163.98,0,245.97,0,3.29,0,4.93-3.73,2.61-5.9l-92.76-86.91c-4.97-4.66-4.97-12.3,0-16.97l16.91-15.83c4.97-4.67,13.13-4.67,18.11,0l140.83,131.95c8.58,8.04,8.58,21.06,0,29.1Z"/>
  </g>
</svg>
