<svg xmlns="http://www.w3.org/2000/svg" width="264" height="64" fill="none"><path fill="#fff" fill-rule="evenodd" d="m263.927 20.007-5.769.014.042-8.468-4.905 6.727v30.113h-6.805v-.679h-.003v-4.788a12.577 12.577 0 0 1-4.181 4.104c-1.72 1.02-3.734 1.531-6.042 1.531-2.374 0-4.595-.445-6.663-1.335a17.776 17.776 0 0 1-5.488-3.681 17.723 17.723 0 0 1-3.691-5.473c-.892-2.063-1.339-4.278-1.339-6.645s.446-4.582 1.339-6.645a17.224 17.224 0 0 1 3.691-5.472 17.501 17.501 0 0 1 5.488-3.714c2.068-.89 4.289-1.335 6.663-1.335 2.308 0 4.322.521 6.042 1.563a12.388 12.388 0 0 1 4.181 4.04v-1.33h.003v-1.357l.003-.135c.026-.67.251-1.317.648-1.86L254 5.775l-10.076.05.014-5.754L264 0l-.073 20.007Zm-27.598.801c-1.895 0-3.626.478-5.193 1.433a10.89 10.89 0 0 0-3.724 3.844c-.914 1.607-1.372 3.388-1.372 5.342 0 1.976.469 3.768 1.405 5.375a11.249 11.249 0 0 0 3.756 3.811 9.839 9.839 0 0 0 5.128 1.401c1.916 0 3.593-.467 5.03-1.4 1.437-.956 2.548-2.238 3.331-3.845.806-1.607 1.209-3.387 1.209-5.342 0-1.976-.403-3.767-1.209-5.374-.805-1.607-1.926-2.878-3.363-3.812-1.416-.955-3.082-1.433-4.998-1.433Z" clip-rule="evenodd"/><path fill="#fff" d="M198.842 47.714V15.14h6.794v3.453c1.132-1.347 2.526-2.41 4.181-3.193 1.654-.781 3.44-1.172 5.356-1.172 1.22 0 2.428.163 3.626.488l-2.711 6.84a7.07 7.07 0 0 0-2.548-.488c-1.437 0-2.754.359-3.952 1.075a7.97 7.97 0 0 0-2.874 2.834c-.719 1.195-1.078 2.52-1.078 3.974v18.763h-6.794Zm-21.608.846c-3.005 0-5.749-.77-8.231-2.312-2.461-1.542-4.432-3.605-5.912-6.19-1.459-2.605-2.189-5.483-2.189-8.631 0-2.389.425-4.615 1.274-6.678.849-2.085 2.014-3.909 3.495-5.472a16.405 16.405 0 0 1 5.226-3.714c1.982-.89 4.094-1.335 6.337-1.335 3.004 0 5.737.77 8.198 2.313 2.482 1.541 4.453 3.615 5.912 6.221 1.48 2.606 2.221 5.494 2.221 8.665 0 2.367-.425 4.582-1.274 6.645a17.628 17.628 0 0 1-3.528 5.472 16.243 16.243 0 0 1-5.193 3.68c-1.96.891-4.072 1.337-6.336 1.337Zm0-6.775c1.807 0 3.429-.478 4.866-1.433a10.165 10.165 0 0 0 3.397-3.779c.849-1.585 1.274-3.3 1.274-5.146 0-1.89-.436-3.627-1.307-5.212-.849-1.585-1.992-2.845-3.429-3.779-1.437-.955-3.038-1.433-4.801-1.433-1.786 0-3.408.478-4.867 1.433-1.437.956-2.58 2.226-3.43 3.811-.827 1.586-1.241 3.312-1.241 5.18 0 1.932.436 3.68 1.307 5.244.871 1.564 2.025 2.812 3.462 3.746a8.824 8.824 0 0 0 4.769 1.368Zm-56.919 5.929V2.111h7.349l21.002 33.355V2.111h6.793v45.603h-7.349l-21.002-33.355v33.355h-6.793Zm-14.738-32.572h6.794v32.573h-6.794V15.142Zm3.462-4.724c-1.045 0-1.916-.336-2.613-1.01-.696-.673-1.045-1.52-1.045-2.54 0-.999.349-1.835 1.045-2.508.697-.695 1.557-1.043 2.581-1.043 1.001 0 1.851.348 2.547 1.043.697.673 1.046 1.509 1.046 2.508 0 1.02-.349 1.867-1.046 2.54-.675.674-1.513 1.01-2.515 1.01ZM91.518 15.14h6.794v33.42c0 2.237-.48 4.3-1.438 6.19a15.201 15.201 0 0 1-3.821 4.885c-1.611 1.39-3.462 2.465-5.553 3.225A18.699 18.699 0 0 1 81 64a15.54 15.54 0 0 1-6.597-1.466 18.247 18.247 0 0 1-5.586-3.909 16.254 16.254 0 0 1-3.56-5.602l6.239-2.802a9.602 9.602 0 0 0 2.09 3.584 11.202 11.202 0 0 0 3.397 2.475c1.307.608 2.646.912 4.018.912 1.35 0 2.645-.217 3.886-.651a11.022 11.022 0 0 0 3.365-1.76 8.679 8.679 0 0 0 2.384-2.736 7.088 7.088 0 0 0 .882-3.485v-5.505a12.709 12.709 0 0 1-4.116 4.007c-1.676.999-3.625 1.498-5.846 1.498-2.308 0-4.486-.445-6.533-1.335a17.095 17.095 0 0 1-5.389-3.681 17.533 17.533 0 0 1-3.626-5.473c-.87-2.063-1.306-4.278-1.306-6.645s.436-4.582 1.306-6.645a17.047 17.047 0 0 1 3.626-5.472 16.836 16.836 0 0 1 5.39-3.714c2.046-.89 4.224-1.335 6.532-1.335 2.22 0 4.17.51 5.846 1.531a12.285 12.285 0 0 1 4.116 4.006V15.14ZM81.62 42.013c1.895 0 3.55-.478 4.965-1.433 1.415-.978 2.515-2.27 3.299-3.877.784-1.607 1.176-3.366 1.176-5.277 0-1.954-.403-3.724-1.209-5.31-.784-1.606-1.883-2.887-3.299-3.843-1.415-.977-3.06-1.466-4.932-1.466-1.829 0-3.506.478-5.03 1.434-1.502.955-2.7 2.236-3.593 3.843-.892 1.607-1.339 3.388-1.339 5.342 0 1.955.447 3.735 1.34 5.342.914 1.607 2.122 2.889 3.625 3.844a9.386 9.386 0 0 0 4.997 1.4ZM45.117 48.56c-3.005 0-5.749-.77-8.231-2.312-2.46-1.542-4.431-3.605-5.912-6.19-1.46-2.605-2.189-5.483-2.189-8.631 0-2.389.425-4.615 1.274-6.678.85-2.085 2.014-3.909 3.495-5.472a16.394 16.394 0 0 1 5.226-3.714c1.982-.89 4.094-1.335 6.337-1.335 3.005 0 5.737.77 8.198 2.313 2.482 1.541 4.453 3.615 5.912 6.221 1.48 2.606 2.22 5.494 2.22 8.665 0 2.367-.424 4.582-1.273 6.645a17.64 17.64 0 0 1-3.528 5.472 16.257 16.257 0 0 1-5.193 3.68c-1.96.891-4.072 1.337-6.336 1.337Zm0-6.775c1.807 0 3.43-.478 4.866-1.433a10.167 10.167 0 0 0 3.397-3.779c.85-1.585 1.274-3.3 1.274-5.146 0-1.89-.436-3.627-1.307-5.212-.849-1.585-1.992-2.845-3.429-3.779-1.437-.955-3.038-1.433-4.801-1.433-1.786 0-3.408.478-4.867 1.433-1.437.956-2.58 2.226-3.43 3.811-.827 1.586-1.24 3.312-1.24 5.18 0 1.932.435 3.68 1.306 5.244.87 1.564 2.025 2.812 3.462 3.746a8.825 8.825 0 0 0 4.769 1.368ZM0 47.714V2.111h6.794v38.828h19.695v6.775H0Z"/></svg>