<svg xmlns="http://www.w3.org/2000/svg" width="23" height="25" fill="none"><path fill="#E7E5E4" fill-rule="evenodd" d="m22.36 10.004-2.876.006.02-4.234L17.06 9.14v15.056h-3.393v-.34h-.002v-2.394a6.28 6.28 0 0 1-2.084 2.053c-.858.51-1.862.765-3.013.765a8.294 8.294 0 0 1-3.323-.668 8.86 8.86 0 0 1-2.736-1.84 8.862 8.862 0 0 1-1.84-2.736A8.294 8.294 0 0 1 0 15.713c0-1.183.223-2.29.668-3.322a8.614 8.614 0 0 1 1.84-2.736 8.724 8.724 0 0 1 2.736-1.857 8.294 8.294 0 0 1 3.323-.668c1.15 0 2.155.26 3.013.782a6.184 6.184 0 0 1 2.085 2.02V8.588l.002-.067c.014-.335.126-.659.323-.93l3.42-4.703-5.024.025.007-2.877L22.397 0l-.037 10.004Zm-13.76.4a4.87 4.87 0 0 0-2.59.716 5.433 5.433 0 0 0-1.857 1.922c-.456.804-.684 1.694-.684 2.671 0 .988.234 1.884.7 2.688a5.617 5.617 0 0 0 1.873 1.905c.782.467 1.634.7 2.557.7.956 0 1.792-.233 2.508-.7a4.768 4.768 0 0 0 1.662-1.922c.401-.803.602-1.694.602-2.67 0-.989-.2-1.885-.602-2.688a4.77 4.77 0 0 0-1.678-1.906c-.705-.477-1.536-.716-2.492-.716Z" clip-rule="evenodd"/></svg>